# xmcd CD database file
#
# Track frame offsets:
#	150
#	13505
#	27332
#	41241
#	55581
#	67412
#	81891
#	95836
#	106821
#	121645
#	135076
#	148216
#	162198
#	176569
#	189456
#	202877
#	218504
#	233308
#	247492
#	262974
#
# Disc length: 3654 seconds
#
# Revision: 3
# Processed by: cddbd v1.5.2PL0 Copyright (c) Steve Scherf et al.
# Submitted via: CDex 1.73
#
DISCID=110e4414
DTITLE=Various Artist - Jazz in the Charts - CD 029/100 (1936) (6)
DYEAR=1936
DGENRE=Jazz
TTITLE0=Midnight Blue - Henry Red Allen and His Orchestra - Vocals Herny Allen
TTITLE1=Close to Me - Tommy Dorsey and His Orchestra - Vocals Jack Leonard
TTITLE2=Barrelhouse - Mills Blue Rhythm Band
TTITLE3=Organ Grinder's Swing - Benny Goodman and His Orchestra
TTITLE4=When a Lady Meets a Gentleman Down South - Benny Goodman and His Orchestra - Vocals Helen Ward
TTITLE5=T'Ain't Good (Like a Nickle Made of Wood) - Jimmie Lunceford and His Orchestra - Vocals Sy Oliver - Vocals Willie Smith - Vocals Dan Grissom
TTITLE6=When Did You Leave Heaven? - Henry Red Allen and His Orchestra - Vocals Herny Allen
TTITLE7=Did You Mean It? - Charlie Barnet and His Orchestra - Vocals Charlie Barnet
TTITLE8=Exactly Like You - Benny Goodman Trio - Vocals Lionel Hampton
TTITLE9=Buggle Call Rag - Benny Goodman and His Orchestra
TTITLE10=There's Frost on the Moon - Artie Shaw and His Orchestra - Vocals Peg La Centra
TTITLE11=Dinah - Fats Waller and His Orchestra - Vocals Fats Waller 
TTITLE12=For Sentimental Reasons (I Love You) - Mildred Bailey and Her Orchestra - Vocals Mildred Bailey
TTITLE13=Pennies From Heaven - Jimmie Dorsey and His Orchestra - Vocals Bob Eberle
TTITLE14=You'll Have to Swing It (If You Can't Sing It) - Chick Webb and His Orchestra - Vocals Ella Fitzgerald
TTITLE15=I Can't Give You Anything But Love - Teddie Wilson and His Orchestra - Vocals Billie Holiday
TTITLE16=More Than You Know - Mildred Bailey and Her Orchestra - Vocals Mildred Bailey
TTITLE17=That's Life I Guess - Teddie Wilson and His Orchestra - Vocals Billie Holiday
TTITLE18=Mr. Ghost Goes to Town - Mills Blue Rhythm Band
TTITLE19=T'Ain't Good (Like a Nickle Made of Wood) - Fats Waller and His Orchestra - Vocals Fats Waller
EXTD=YEAR: 1936
EXTT0=
EXTT1=
EXTT2=
EXTT3=
EXTT4=
EXTT5=
EXTT6=
EXTT7=
EXTT8=
EXTT9=
EXTT10=
EXTT11=
EXTT12=
EXTT13=
EXTT14=
EXTT15=
EXTT16=
EXTT17=
EXTT18=
EXTT19=
PLAYORDER=
